<svg xmlns="http://www.w3.org/2000/svg" viewBox="0 0 220 256" fill="none" role="img" aria-label="Aguacate">
  <path d="M110 24 C 92 24 74 40 66 70 C 56 104 30 130 30 168 C 30 208 66 236 110 236 C 154 236 190 208 190 168 C 190 130 164 104 154 70 C 146 40 128 24 110 24 Z" fill="none" stroke="#111111" stroke-width="16" stroke-linejoin="round" stroke-linecap="round"></path>
  <g fill="#111111">
    <rect x="50.5" y="141" width="11" height="38" rx="5.5"></rect>
    <rect x="68.5" y="130" width="11" height="60" rx="5.5"></rect>
    <rect x="86.5" y="118" width="11" height="84" rx="5.5"></rect>
    <rect x="104.5" y="108" width="11" height="104" rx="5.5"></rect>
    <rect x="122.5" y="118" width="11" height="84" rx="5.5"></rect>
    <rect x="140.5" y="130" width="11" height="60" rx="5.5"></rect>
    <rect x="158.5" y="141" width="11" height="38" rx="5.5"></rect>
  </g>
</svg>